<svg xmlns="http://www.w3.org/2000/svg" viewBox="0 0 960 960"><circle cx="480" cy="232" r="136"/><circle cx="694.8" cy="604" r="136"/><circle cx="265.2" cy="604" r="136"/><path d="M241.9 439.6v-97.1L326 294c-6.6-16.3-10.5-33.4-11.6-51l-122.5 70.7v141.4c15.8-7.8 32.6-13 50-15.5"/><path d="m634 294 84.1 48.5v97.1c17.4 2.5 34.2 7.6 50 15.5V313.7L645.6 243c-1.1 17.6-5 34.7-11.6 51"/><path d="M564.1 706.4 480 754.9l-84.1-48.5c-10.9 13.9-23.7 25.8-38.4 35.6L480 812.7 602.5 742c-14.7-9.8-27.5-21.7-38.4-35.6"/></svg>