<svg xmlns="http://www.w3.org/2000/svg" viewBox="0 0 960 960"><path d="M480 119.9 291.3 336.4c39.2-7.6 79.4-14.9 113.2-20.6L294.3 427.6l-44.1 4.2 18.7 40.1-40.4 151.3c-12-32.4-26.2-71.6-39.4-110L95.9 784.9l281.9 55.2c-26.2-30.1-52.6-61.4-74.5-87.8l152 39.5 25.7 36.1 25.4-36.3 151.2-40.7c-22.1 26.6-49 58.5-75.6 89.1l281.9-55.2-93.2-271.7c-13 37.8-26.9 76.2-38.8 108.4l-41.7-151.4 18.4-40.3-44.1-3.9-110.8-110.6c34.1 5.8 75.1 13.1 115 20.9L480 119.7Zm0 307.3c75.9 0 137.4 61.5 137.4 137.4S555.9 702 480 702s-137.4-61.5-137.4-137.4S404.1 427.2 480 427.2"/></svg>